{
	"patcher" : 	{
		"fileversion" : 1,
		"appversion" : 		{
			"major" : 8,
			"minor" : 0,
			"revision" : 5,
			"architecture" : "x64",
			"modernui" : 1
		}
,
		"classnamespace" : "box",
		"rect" : [ 921.0, 195.0, 961.0, 1114.0 ],
		"bglocked" : 0,
		"openinpresentation" : 0,
		"default_fontsize" : 12.0,
		"default_fontface" : 0,
		"default_fontname" : "Arial",
		"gridonopen" : 1,
		"gridsize" : [ 15.0, 15.0 ],
		"gridsnaponopen" : 1,
		"objectsnaponopen" : 1,
		"statusbarvisible" : 2,
		"toolbarvisible" : 1,
		"lefttoolbarpinned" : 0,
		"toptoolbarpinned" : 0,
		"righttoolbarpinned" : 0,
		"bottomtoolbarpinned" : 0,
		"toolbars_unpinned_last_save" : 0,
		"tallnewobj" : 0,
		"boxanimatetime" : 200,
		"enablehscroll" : 1,
		"enablevscroll" : 1,
		"devicewidth" : 0.0,
		"description" : "",
		"digest" : "",
		"tags" : "",
		"style" : "",
		"subpatcher_template" : "",
		"boxes" : [ 			{
				"box" : 				{
					"id" : "obj-144",
					"maxclass" : "number",
					"numinlets" : 1,
					"numoutlets" : 2,
					"outlettype" : [ "", "bang" ],
					"parameter_enable" : 0,
					"patching_rect" : [ 493.0, 219.0, 50.0, 22.0 ]
				}

			}
, 			{
				"box" : 				{
					"id" : "obj-143",
					"maxclass" : "newobj",
					"numinlets" : 1,
					"numoutlets" : 0,
					"patching_rect" : [ 493.0, 259.0, 55.0, 22.0 ],
					"text" : "s detune"
				}

			}
, 			{
				"box" : 				{
					"fontname" : "Avenir Next Bold",
					"fontsize" : 20.0,
					"id" : "obj-142",
					"linecount" : 2,
					"maxclass" : "comment",
					"numinlets" : 1,
					"numoutlets" : 0,
					"patching_rect" : [ 315.0, 676.5, 83.0, 61.0 ],
					"presentation_linecount" : 2,
					"text" : "PLAY \nNOTES"
				}

			}
, 			{
				"box" : 				{
					"fontname" : "Avenir Next Bold",
					"fontsize" : 20.0,
					"id" : "obj-141",
					"linecount" : 2,
					"maxclass" : "comment",
					"numinlets" : 1,
					"numoutlets" : 0,
					"patching_rect" : [ 315.0, 460.0, 83.0, 61.0 ],
					"presentation_linecount" : 2,
					"text" : "MAKE NOTES"
				}

			}
, 			{
				"box" : 				{
					"fontname" : "Avenir Next Bold",
					"fontsize" : 20.0,
					"id" : "obj-140",
					"maxclass" : "comment",
					"numinlets" : 1,
					"numoutlets" : 0,
					"patching_rect" : [ 315.0, 305.0, 83.0, 34.0 ],
					"text" : "SCALE"
				}

			}
, 			{
				"box" : 				{
					"id" : "obj-1",
					"maxclass" : "newobj",
					"numinlets" : 1,
					"numoutlets" : 0,
					"patching_rect" : [ 145.5, 696.0, 112.0, 22.0 ],
					"text" : "poly~ pling_poly 30"
				}

			}
, 			{
				"box" : 				{
					"id" : "obj-135",
					"maxclass" : "toggle",
					"numinlets" : 1,
					"numoutlets" : 1,
					"outlettype" : [ "int" ],
					"parameter_enable" : 0,
					"patching_rect" : [ 145.5, 153.0, 24.0, 24.0 ]
				}

			}
, 			{
				"box" : 				{
					"id" : "obj-133",
					"maxclass" : "newobj",
					"numinlets" : 2,
					"numoutlets" : 1,
					"outlettype" : [ "bang" ],
					"patching_rect" : [ 145.5, 232.0, 63.0, 22.0 ],
					"text" : "metro 100"
				}

			}
, 			{
				"box" : 				{
					"id" : "obj-132",
					"maxclass" : "newobj",
					"numinlets" : 2,
					"numoutlets" : 1,
					"outlettype" : [ "int" ],
					"patching_rect" : [ 145.5, 407.0, 29.5, 22.0 ],
					"text" : "+"
				}

			}
, 			{
				"box" : 				{
					"id" : "obj-131",
					"maxclass" : "newobj",
					"numinlets" : 2,
					"numoutlets" : 1,
					"outlettype" : [ "int" ],
					"patching_rect" : [ 223.5, 353.0, 30.0, 22.0 ],
					"text" : "* 12"
				}

			}
, 			{
				"box" : 				{
					"id" : "obj-130",
					"maxclass" : "newobj",
					"numinlets" : 2,
					"numoutlets" : 1,
					"outlettype" : [ "int" ],
					"patching_rect" : [ 223.5, 305.0, 59.0, 22.0 ],
					"text" : "random 3"
				}

			}
, 			{
				"box" : 				{
					"id" : "obj-127",
					"maxclass" : "newobj",
					"numinlets" : 1,
					"numoutlets" : 0,
					"patching_rect" : [ 145.5, 931.0, 94.0, 22.0 ],
					"text" : "mc.dac~ 1 2 3 4"
				}

			}
, 			{
				"box" : 				{
					"id" : "obj-126",
					"lastchannelcount" : 4,
					"maxclass" : "mc.live.gain~",
					"numinlets" : 1,
					"numoutlets" : 4,
					"outlettype" : [ "multichannelsignal", "", "float", "list" ],
					"parameter_enable" : 1,
					"patching_rect" : [ 145.5, 778.0, 48.0, 136.0 ],
					"saved_attribute_attributes" : 					{
						"valueof" : 						{
							"parameter_mmax" : 6.0,
							"parameter_shortname" : "mc.live.gain~",
							"parameter_type" : 0,
							"parameter_unitstyle" : 4,
							"parameter_mmin" : -70.0,
							"parameter_longname" : "mc.live.gain~"
						}

					}
,
					"varname" : "mc.live.gain~"
				}

			}
, 			{
				"box" : 				{
					"id" : "obj-123",
					"maxclass" : "newobj",
					"numinlets" : 1,
					"numoutlets" : 1,
					"outlettype" : [ "multichannelsignal" ],
					"patching_rect" : [ 145.5, 732.0, 120.0, 22.0 ],
					"text" : "mc.receive~ mcout 4"
				}

			}
, 			{
				"box" : 				{
					"id" : "obj-110",
					"maxclass" : "newobj",
					"numinlets" : 2,
					"numoutlets" : 1,
					"outlettype" : [ "int" ],
					"patching_rect" : [ 145.5, 305.0, 59.0, 22.0 ],
					"text" : "random 6"
				}

			}
, 			{
				"box" : 				{
					"id" : "obj-109",
					"maxclass" : "message",
					"numinlets" : 2,
					"numoutlets" : 1,
					"outlettype" : [ "" ],
					"patching_rect" : [ 92.0, 305.0, 33.0, 22.0 ],
					"text" : "read"
				}

			}
, 			{
				"box" : 				{
					"id" : "obj-103",
					"maxclass" : "newobj",
					"numinlets" : 1,
					"numoutlets" : 2,
					"outlettype" : [ "int", "bang" ],
					"patching_rect" : [ 145.5, 353.0, 55.0, 22.0 ],
					"text" : "midiread"
				}

			}
, 			{
				"box" : 				{
					"id" : "obj-73",
					"maxclass" : "newobj",
					"numinlets" : 1,
					"numoutlets" : 2,
					"outlettype" : [ "int", "int" ],
					"patching_rect" : [ 145.5, 498.0, 67.0, 22.0 ],
					"text" : "unpack 0 0"
				}

			}
, 			{
				"box" : 				{
					"id" : "obj-70",
					"maxclass" : "newobj",
					"numinlets" : 1,
					"numoutlets" : 1,
					"outlettype" : [ "" ],
					"patching_rect" : [ 145.5, 460.0, 72.0, 22.0 ],
					"text" : "append 127"
				}

			}
, 			{
				"box" : 				{
					"id" : "obj-12",
					"maxclass" : "newobj",
					"numinlets" : 7,
					"numoutlets" : 2,
					"outlettype" : [ "int", "" ],
					"patching_rect" : [ 145.5, 620.0, 82.0, 22.0 ],
					"text" : "midiformat"
				}

			}
, 			{
				"box" : 				{
					"id" : "obj-11",
					"maxclass" : "newobj",
					"numinlets" : 2,
					"numoutlets" : 1,
					"outlettype" : [ "" ],
					"patching_rect" : [ 145.5, 580.0, 54.0, 22.0 ],
					"text" : "pack 0 0"
				}

			}
, 			{
				"box" : 				{
					"id" : "obj-2",
					"maxclass" : "newobj",
					"numinlets" : 3,
					"numoutlets" : 2,
					"outlettype" : [ "float", "float" ],
					"patching_rect" : [ 145.5, 535.0, 115.0, 22.0 ],
					"text" : "makenote 127 200"
				}

			}
, 			{
				"box" : 				{
					"angle" : 270.0,
					"background" : 1,
					"grad1" : [ 0.890196078431372, 0.674509803921569, 0.996078431372549, 1.0 ],
					"grad2" : [ 0.890196078431372, 0.674509803921569, 0.996078431372549, 1.0 ],
					"id" : "obj-138",
					"maxclass" : "panel",
					"mode" : 1,
					"numinlets" : 1,
					"numoutlets" : 0,
					"patching_rect" : [ 76.5, 661.0, 336.0, 317.0 ],
					"proportion" : 0.5,
					"rounded" : 0
				}

			}
, 			{
				"box" : 				{
					"angle" : 270.0,
					"background" : 1,
					"grad1" : [ 0.427450980392157, 0.941176470588235, 0.992156862745098, 1.0 ],
					"grad2" : [ 0.427450980392157, 0.941176470588235, 0.992156862745098, 1.0 ],
					"id" : "obj-137",
					"maxclass" : "panel",
					"mode" : 1,
					"numinlets" : 1,
					"numoutlets" : 0,
					"patching_rect" : [ 76.5, 442.0, 336.0, 223.0 ],
					"proportion" : 0.5,
					"rounded" : 0
				}

			}
, 			{
				"box" : 				{
					"angle" : 270.0,
					"background" : 1,
					"grad1" : [ 0.431372549019608, 0.996078431372549, 0.63921568627451, 1.0 ],
					"grad2" : [ 0.431372549019608, 0.996078431372549, 0.63921568627451, 1.0 ],
					"id" : "obj-136",
					"maxclass" : "panel",
					"mode" : 1,
					"numinlets" : 1,
					"numoutlets" : 0,
					"patching_rect" : [ 76.5, 285.0, 336.0, 162.0 ],
					"proportion" : 0.5,
					"rounded" : 0
				}

			}
 ],
		"lines" : [ 			{
				"patchline" : 				{
					"destination" : [ "obj-132", 0 ],
					"source" : [ "obj-103", 0 ]
				}

			}
, 			{
				"patchline" : 				{
					"destination" : [ "obj-103", 0 ],
					"source" : [ "obj-109", 0 ]
				}

			}
, 			{
				"patchline" : 				{
					"destination" : [ "obj-12", 0 ],
					"source" : [ "obj-11", 0 ]
				}

			}
, 			{
				"patchline" : 				{
					"destination" : [ "obj-103", 0 ],
					"source" : [ "obj-110", 0 ]
				}

			}
, 			{
				"patchline" : 				{
					"destination" : [ "obj-1", 0 ],
					"midpoints" : [ 218.0, 681.0, 155.0, 681.0 ],
					"source" : [ "obj-12", 1 ]
				}

			}
, 			{
				"patchline" : 				{
					"destination" : [ "obj-126", 0 ],
					"source" : [ "obj-123", 0 ]
				}

			}
, 			{
				"patchline" : 				{
					"destination" : [ "obj-127", 0 ],
					"source" : [ "obj-126", 0 ]
				}

			}
, 			{
				"patchline" : 				{
					"destination" : [ "obj-131", 0 ],
					"source" : [ "obj-130", 0 ]
				}

			}
, 			{
				"patchline" : 				{
					"destination" : [ "obj-132", 1 ],
					"source" : [ "obj-131", 0 ]
				}

			}
, 			{
				"patchline" : 				{
					"destination" : [ "obj-70", 0 ],
					"source" : [ "obj-132", 0 ]
				}

			}
, 			{
				"patchline" : 				{
					"destination" : [ "obj-110", 0 ],
					"order" : 1,
					"source" : [ "obj-133", 0 ]
				}

			}
, 			{
				"patchline" : 				{
					"destination" : [ "obj-130", 0 ],
					"order" : 0,
					"source" : [ "obj-133", 0 ]
				}

			}
, 			{
				"patchline" : 				{
					"destination" : [ "obj-133", 0 ],
					"source" : [ "obj-135", 0 ]
				}

			}
, 			{
				"patchline" : 				{
					"destination" : [ "obj-143", 0 ],
					"source" : [ "obj-144", 0 ]
				}

			}
, 			{
				"patchline" : 				{
					"destination" : [ "obj-11", 1 ],
					"midpoints" : [ 251.0, 567.0, 190.0, 567.0 ],
					"source" : [ "obj-2", 1 ]
				}

			}
, 			{
				"patchline" : 				{
					"destination" : [ "obj-11", 0 ],
					"source" : [ "obj-2", 0 ]
				}

			}
, 			{
				"patchline" : 				{
					"destination" : [ "obj-73", 0 ],
					"source" : [ "obj-70", 0 ]
				}

			}
, 			{
				"patchline" : 				{
					"destination" : [ "obj-2", 1 ],
					"source" : [ "obj-73", 1 ]
				}

			}
, 			{
				"patchline" : 				{
					"destination" : [ "obj-2", 0 ],
					"source" : [ "obj-73", 0 ]
				}

			}
 ],
		"parameters" : 		{
			"obj-126" : [ "mc.live.gain~", "mc.live.gain~", 0 ],
			"parameterbanks" : 			{

			}

		}
,
		"dependency_cache" : [ 			{
				"name" : "midiread.maxpat",
				"bootpath" : "~/Desktop/node_and_max/pling",
				"patcherrelativepath" : ".",
				"type" : "JSON",
				"implicit" : 1
			}
, 			{
				"name" : "pling_poly.maxpat",
				"bootpath" : "~/Desktop/node_and_max/pling",
				"patcherrelativepath" : ".",
				"type" : "JSON",
				"implicit" : 1
			}
 ],
		"autosave" : 0
	}

}
